<svg aria-hidden="true" style="position: absolute; width: 0; height: 0; overflow: hidden;" version="1.1" xmlns="http://www.w3.org/2000/svg" xmlns:xlink="http://www.w3.org/1999/xlink">
<defs>
<symbol id="icon-arrow-r" viewBox="0 0 32 32">
<path stroke-linejoin="round" stroke-linecap="round" stroke-miterlimit="10" stroke-width="1.3333" d="M19.241 7.905l8.093 8.093-8.093 8.093M4.668 15.999h22.44"></path>
</symbol>
<symbol id="icon-arrow-tr" viewBox="0 0 32 32">
<path stroke-linejoin="round" stroke-linecap="round" stroke-miterlimit="10" stroke-width="1.7143" d="M12.569 7.985h11.445v11.446M7.987 24.011l15.867-15.865"></path>
</symbol>
<symbol id="icon-arrow-l" viewBox="0 0 32 32">
<path stroke-linejoin="round" stroke-linecap="round" stroke-miterlimit="10" stroke-width="1.3333" d="M12.759 7.905l-8.092 8.093 8.093 8.093M27.332 15.999h-22.44"></path>
</symbol>
<symbol id="icon-global-edit" viewBox="0 0 32 32">
<path stroke-linejoin="round" stroke-linecap="round" stroke-miterlimit="4" stroke-width="2" d="M29.334 16c-0.003-7.363-5.971-13.331-13.334-13.334h-0c-7.363 0.003-13.331 5.971-13.334 13.334v0c0.003 7.363 5.971 13.331 13.334 13.334h0"></path>
<path stroke-linejoin="round" stroke-linecap="round" stroke-miterlimit="4" stroke-width="2" d="M10.666 4h1.334c-1.236 3.581-1.95 7.707-1.95 12s0.714 8.419 2.029 12.267l-0.079-0.267h-1.334M20 4c1.294 3.894 1.946 7.946 1.946 12"></path>
<path stroke-linejoin="round" stroke-linecap="round" stroke-miterlimit="4" stroke-width="2" d="M4 21.334v-1.334c3.894 1.294 7.946 1.946 12 1.946M4 12c7.786-2.6 16.214-2.6 24 0"></path>
<path stroke-linejoin="round" stroke-linecap="round" stroke-miterlimit="10" stroke-width="2" d="M25.614 20.986l-4.72 4.72c-0.196 0.213-0.337 0.481-0.398 0.777l-0.002 0.011-0.254 1.8c-0.094 0.652 0.36 1.106 1.014 1.012l1.8-0.252c0.307-0.060 0.574-0.202 0.787-0.401l-0.001 0.001 4.72-4.72c0.814-0.814 1.2-1.76 0-2.96-1.186-1.188-2.134-0.8-2.946 0.012z"></path>
<path stroke-linejoin="round" stroke-linecap="round" stroke-miterlimit="10" stroke-width="2" d="M24.934 21.666c0.4 1.44 1.52 2.56 2.96 2.96"></path>
</symbol>
<symbol id="icon-ranking" viewBox="0 0 32 32">
<path stroke-linejoin="round" stroke-linecap="round" stroke-miterlimit="10" stroke-width="2" d="M11.56 18.666h-6.226c-1.468 0-2.668 1.2-2.668 2.668v8h8.894v-10.668z"></path>
<path stroke-linejoin="round" stroke-linecap="round" stroke-miterlimit="10" stroke-width="2" d="M17.774 13.334h-3.56c-1.468 0-2.668 1.2-2.668 2.666v13.334h8.894v-13.334c0-1.466-1.186-2.666-2.666-2.666zM26.666 22.666h-6.226v6.668h8.894v-4c0-1.468-1.2-2.668-2.668-2.668z"></path>
<path stroke-linejoin="round" stroke-linecap="round" stroke-miterlimit="4" stroke-width="2" d="M16.694 2.76l0.706 1.414c0.094 0.2 0.346 0.386 0.56 0.412l1.28 0.214c0.814 0.134 1.014 0.734 0.426 1.306l-1 1c-0.139 0.151-0.224 0.354-0.224 0.576 0 0.051 0.004 0.101 0.013 0.149l-0.001-0.005 0.28 1.228c0.226 0.972-0.294 1.346-1.148 0.84l-1.2-0.708c-0.114-0.063-0.249-0.1-0.393-0.1s-0.279 0.037-0.397 0.102l0.004-0.002-1.2 0.708c-0.854 0.506-1.374 0.132-1.146-0.84l0.28-1.228c0.008-0.044 0.013-0.094 0.013-0.146 0-0.222-0.086-0.424-0.227-0.575l0 0-0.986-0.986c-0.588-0.586-0.4-1.174 0.426-1.306l1.28-0.214c0.24-0.058 0.438-0.208 0.558-0.41l0.002-0.004 0.706-1.412c0.388-0.774 1-0.774 1.388-0.014z"></path>
</symbol>
<symbol id="icon-cpu-charge" viewBox="0 0 32 32">
<path stroke-linejoin="round" stroke-linecap="round" stroke-miterlimit="4" stroke-width="2" d="M12.8 26.666h6.4c5.334 0 7.466-2.132 7.466-7.466v-6.4c0-5.334-2.132-7.466-7.466-7.466h-6.4c-5.334 0-7.466 2.132-7.466 7.466v6.4c0 5.334 2.132 7.466 7.466 7.466z"></path>
<path stroke-linejoin="round" stroke-linecap="round" stroke-miterlimit="4" stroke-width="2" d="M14 22.666h4c3.334 0 4.666-1.332 4.666-4.666v-4c0-3.334-1.332-4.666-4.666-4.666h-4c-3.334 0-4.666 1.332-4.666 4.666v4c0 3.334 1.332 4.666 4.666 4.666zM10.68 5.334v-2.668M16 5.334v-2.668M21.334 5.334v-2.668M26.666 10.666h2.668M26.666 16h2.668M26.666 21.334h2.668M21.334 26.666v2.668M16.014 26.666v2.668M10.68 26.666v2.668M2.666 10.666h2.668M2.666 16h2.668M2.666 21.334h2.668"></path>
<path stroke-linejoin="round" stroke-linecap="round" stroke-miterlimit="4" stroke-width="2" d="M16 12.934l-1.254 2.186c-0.28 0.48-0.052 0.88 0.508 0.88h1.492c0.56 0 0.788 0.4 0.508 0.88l-1.254 2.186"></path>
</symbol>
<symbol id="icon-maximize-circle" viewBox="0 0 32 32">
<path stroke-linejoin="round" stroke-linecap="round" stroke-miterlimit="4" stroke-width="2" d="M22.666 4h5.334v5.334M20 12l8-8M9.334 28h-5.334v-5.334M12 20l-8 8M18.694 2.934c-0.81-0.17-1.74-0.267-2.693-0.268h-0.001c-7.365 0.003-13.334 5.975-13.334 13.34 0 0.942 0.098 1.86 0.283 2.747l-0.015-0.087M13.306 29.066c0.868 0.174 1.774 0.268 2.694 0.268 7.365-0.003 13.334-5.975 13.334-13.34 0-0.942-0.098-1.86-0.283-2.747l0.015 0.087"></path>
</symbol>
<symbol id="icon-arrow-right" viewBox="0 0 31 32">
<path fill="#97d28b" style="fill: var(--color1, #97d28b)" d="M15.515 0.485c8.569 0 15.515 6.946 15.515 15.515s-6.946 15.515-15.515 15.515c-8.569 0-15.515-6.946-15.515-15.515s6.946-15.515 15.515-15.515z"></path>
<path fill="none" stroke="#173d33" style="stroke: var(--color2, #173d33)" stroke-linejoin="round" stroke-linecap="round" stroke-miterlimit="10" stroke-width="0.9697" d="M17.086 12.076l3.924 3.924-3.924 3.924"></path>
<path fill="none" stroke="#173d33" style="stroke: var(--color2, #173d33)" stroke-linejoin="round" stroke-linecap="round" stroke-miterlimit="10" stroke-width="0.9697" d="M10.020 16h10.88"></path>
</symbol>
<symbol id="icon-instagram" viewBox="0 0 32 32">
<path fill="none" stroke-linejoin="round" stroke-linecap="round" stroke-miterlimit="4" stroke-width="2" d="M12 29.333h8c6.667 0 9.333-2.667 9.333-9.333v-8c0-6.667-2.667-9.333-9.333-9.333h-8c-6.667 0-9.333 2.667-9.333 9.333v8c0 6.667 2.667 9.333 9.333 9.333z"></path>
<path fill="none" stroke-linejoin="round" stroke-linecap="round" stroke-miterlimit="4" stroke-width="2" d="M16 20.667c2.577 0 4.667-2.089 4.667-4.667s-2.089-4.667-4.667-4.667v0c-2.577 0-4.667 2.089-4.667 4.667s2.089 4.667 4.667 4.667v0z"></path>
<path fill="none" stroke-linejoin="round" stroke-linecap="round" stroke-miterlimit="4" stroke-width="2.6667" d="M23.515 9.333h0.016"></path>
</symbol>
<symbol id="icon-arrow-down" viewBox="0 0 30 32">
<path fill="none" stroke="#173d33" style="stroke: var(--color2, #173d33)" stroke-linejoin="round" stroke-linecap="round" stroke-miterlimit="10" stroke-width="1.7792" d="M19.789 17.728l-4.855 4.316-4.858-4.316M14.933 9.956v11.968"></path>
</symbol>
<symbol id="icon-facebook" viewBox="0 0 32 32">
<path stroke="none"   d="M18.667 12.4v3.867h3.467c0.267 0 0.4 0.267 0.4 0.533l-0.533 2.533c0 0.133-0.267 0.267-0.4 0.267h-2.933v9.733h-4v-9.6h-2.267c-0.267 0-0.4-0.133-0.4-0.4v-2.533c0-0.267 0.133-0.4 0.4-0.4h2.267v-4.4c0-2.267 1.733-4 4-4h3.6c0.267 0 0.4 0.133 0.4 0.4v3.2c0 0.267-0.133 0.4-0.4 0.4h-3.2c-0.267 0-0.4 0.133-0.4 0.4z"></path>
<path fill="none"  stroke-linejoin="round" stroke-linecap="round" stroke-miterlimit="4" stroke-width="2" d="M20 29.333h-8c-6.667 0-9.333-2.667-9.333-9.333v-8c0-6.667 2.667-9.333 9.333-9.333h8c6.667 0 9.333 2.667 9.333 9.333v8c0 6.667-2.667 9.333-9.333 9.333z"></path>
</symbol>
<symbol id="icon-arrow" viewBox="0 0 30 32">
<path fill="none"  stroke-linejoin="round" stroke-linecap="round" stroke-miterlimit="10" stroke-width="1.8824" d="M11.829 8.456h10.773v10.773M7.518 23.541l14.933-14.935"></path>
</symbol>
<symbol id="icon-close" viewBox="0 0 32 32">
<path fill="none"  stroke-linejoin="round" stroke-linecap="round" stroke-miterlimit="4" stroke-width="2.4" d="M9.333 9.333l13.334 13.334M9.333 22.667l13.334-13.334"></path>
</symbol>
<symbol id="icon-logo" viewBox="0 0 55 32">
<path fill="#173d33" style="fill: var(--color3, #173d33)" d="M37.829 22.771c-0.115-0.273-9.56-18.774-9.715-19.029-0.344-0.802-0.825-1.483-1.418-2.046l-0.003-0.003c-0.594-0.563-1.303-1.011-2.088-1.303l-0.043-0.014c-0.634-0.238-1.366-0.376-2.131-0.376-1.014 0-1.971 0.242-2.817 0.672l0.035-0.016c-0.774 0.392-1.427 0.913-1.956 1.541l-0.008 0.009c-0.519 0.616-0.922 1.35-1.163 2.154l-0.011 0.043c-0.153 0.505-0.241 1.085-0.241 1.685 0 0.279 0.019 0.554 0.056 0.823l-0.003-0.031c0.12 0.88 0.412 1.673 0.843 2.371l-0.015-0.026c0.115 0.273 9.155 17.981 9.31 18.236 0.131 0.31 0.267 0.571 0.42 0.819l-0.015-0.026c0.344 0.802 0.825 1.483 1.419 2.046l0.003 0.003c0.594 0.563 1.303 1.011 2.088 1.303l0.043 0.014c0.634 0.238 1.366 0.376 2.131 0.376 0.125 0 0.249-0.004 0.372-0.011l-0.017 0.001c0.893-0.052 1.72-0.285 2.462-0.662l-0.035 0.016c0.774-0.392 1.427-0.913 1.956-1.541l0.008-0.009c0.519-0.616 0.922-1.35 1.163-2.154l0.011-0.043c0.153-0.505 0.241-1.085 0.241-1.685 0-0.279-0.019-0.554-0.056-0.823l0.004 0.031c-0.12-0.88-0.412-1.673-0.843-2.372l0.015 0.026z"></path>
<path fill="#97d28b" style="fill: var(--color2, #97d28b)" d="M26.921 10.252c0.561-0.59 1.006-1.296 1.296-2.077l0.014-0.042c0.227-0.609 0.358-1.312 0.358-2.046 0-0.146-0.005-0.29-0.015-0.433l0.001 0.019c-0.063-0.884-0.306-1.698-0.694-2.423l0.016 0.032c-0.405-0.761-0.938-1.401-1.576-1.915l-0.012-0.009c-0.629-0.507-1.375-0.898-2.19-1.127l-0.044-0.010c-0.493-0.14-1.059-0.221-1.644-0.221-0.304 0-0.604 0.022-0.897 0.064l0.033-0.004c-0.887 0.127-1.685 0.424-2.39 0.858l0.027-0.015c-0.728 0.447-1.337 1.017-1.814 1.686l-0.013 0.019c-0.203 0.214-15.54 18.897-15.71 19.138-0.561 0.59-1.006 1.296-1.296 2.077l-0.014 0.042c-0.227 0.609-0.358 1.312-0.358 2.046 0 1.026 0.256 1.991 0.709 2.837l-0.016-0.032c0.405 0.761 0.938 1.401 1.576 1.915l0.012 0.009c0.629 0.507 1.376 0.898 2.19 1.127l0.044 0.010c0.493 0.14 1.059 0.221 1.644 0.221 0.304 0 0.604-0.022 0.896-0.064l-0.033 0.004c0.888-0.127 1.685-0.424 2.39-0.858l-0.027 0.015c0.728-0.447 1.337-1.017 1.813-1.686l0.013-0.019c0.203-0.214 15.54-18.897 15.71-19.138zM53.312 10.252c0.561-0.59 1.006-1.296 1.296-2.077l0.014-0.042c0.227-0.609 0.358-1.312 0.358-2.046 0-1.026-0.256-1.991-0.709-2.837l0.016 0.032c-0.405-0.761-0.938-1.401-1.576-1.915l-0.012-0.009c-0.629-0.507-1.375-0.898-2.19-1.127l-0.044-0.010c-0.493-0.14-1.059-0.221-1.644-0.221-0.304 0-0.604 0.022-0.897 0.064l0.033-0.004c-0.887 0.127-1.685 0.424-2.39 0.858l0.027-0.015c-0.728 0.447-1.337 1.017-1.814 1.686l-0.013 0.019c-0.203 0.214-15.54 18.897-15.71 19.138-0.561 0.59-1.006 1.296-1.296 2.077l-0.014 0.042c-0.227 0.609-0.358 1.312-0.358 2.046 0 0.146 0.005 0.29 0.015 0.433l-0.001-0.019c0.063 0.884 0.306 1.698 0.694 2.423l-0.016-0.032c0.405 0.761 0.938 1.401 1.576 1.915l0.012 0.009c0.629 0.507 1.375 0.898 2.19 1.127l0.044 0.010c0.493 0.14 1.059 0.221 1.644 0.221 0.304 0 0.604-0.022 0.897-0.064l-0.033 0.004c0.887-0.127 1.685-0.424 2.39-0.858l-0.027 0.015c0.728-0.447 1.337-1.017 1.813-1.686l0.013-0.019c0.203-0.214 15.54-18.897 15.71-19.138z"></path>
</symbol>
<symbol id="icon-menu" viewBox="0 0 30 32">
<path stroke-linejoin="miter" stroke-linecap="round" stroke-miterlimit="4" stroke-width="1.8824" d="M3.765 9.726h22.588M3.765 16h22.588M3.765 22.274h22.588"></path>
</symbol>
</defs>
</svg>
